# xmcd
#
# Track frame offsets: 
#        150
#        17219
#        28467
#        41923
#        57977
#        67791
#        80834
#        95803
#        111504
#        122844
#
# Disc length: 1857 seconds
#
# Revision: 0
# Processed by: cddbd v1.5.1PL0 Copyright (c) Steve Scherf et al.
# Submitted via: ExactAudioCopy v0.95a5
#
DISCID=95073f0a
DTITLE=Ray Price - All-Time Greatest Hits
DYEAR=2001
DGENRE=Country
TTITLE0=For The Good Times
TTITLE1=Crazy Arms
TTITLE2=Heartaches By The Number
TTITLE3=She's Got To Be A Saint
TTITLE4=Make The World Go Away
TTITLE5=City Lights
TTITLE6=Night Life
TTITLE7=I Won't Mention It Again
TTITLE8=My Shoes Keep Walking Back To You
TTITLE9=You're The Best Thing That Ever Happened To Me
EXTD=
EXTT0=
EXTT1=
EXTT2=
EXTT3=
EXTT4=
EXTT5=
EXTT6=
EXTT7=
EXTT8=
EXTT9=
PLAYORDER=
